<?xml version="1.0" encoding="utf-8"?>
<!-- Generator: Adobe Illustrator 15.0.2, SVG Export Plug-In . SVG Version: 6.00 Build 0)  -->
<!DOCTYPE svg PUBLIC "-//W3C//DTD SVG 1.1//EN" "http://www.w3.org/Graphics/SVG/1.1/DTD/svg11.dtd">
<svg version="1.1" id="Layer_1" xmlns="http://www.w3.org/2000/svg" xmlns:xlink="http://www.w3.org/1999/xlink" x="0px" y="0px"
	 width="618.653px" height="39.207px" viewBox="0 0 618.653 39.207" enable-background="new 0 0 618.653 39.207"
	 xml:space="preserve">
<g>
	<g>
		<path fill="#F94F06" d="M35.678,32.14H18.372l-2.403,6.179H0.403L18.945,0.888h16.626l18.536,37.431H38.146L35.678,32.14z
			 M32.516,24.046L27.071,10.59l-5.388,13.456H32.516z"/>
		<path fill="#642002" d="M54.511,38.569H37.977l-2.468-6.179H18.542l-2.403,6.179H0L18.79,0.638h16.937L54.511,38.569z
			 M38.315,38.069h15.39L35.417,1.138H19.101L0.806,38.069h14.992l2.403-6.179h17.646L38.315,38.069z M32.887,24.296H21.313
			L27.07,9.921L32.887,24.296z M22.052,23.796h10.093L27.072,11.26L22.052,23.796z"/>
	</g>
	<g>
		<path fill="#F94F06" d="M59.054,0.888h14.233l18.576,20.709V0.888h14.366v37.431H91.863L73.389,17.768v20.551H59.054V0.888z"/>
		<path fill="#642002" d="M106.479,38.569H91.751L73.639,18.419v20.149H58.804V0.638h14.595l0.074,0.083l18.14,20.223V0.638h14.866
			V38.569z M91.974,38.069h14.005V1.138H92.113V22.25L73.175,1.138H59.304v36.931h13.835V17.116L91.974,38.069z"/>
	</g>
	<g>
		<path fill="#F94F06" d="M116.56,0.888h22.647c4.462,0,8.068,0.46,10.817,1.379c2.748,0.919,5.019,2.238,6.813,3.958
			c1.796,1.719,3.097,3.719,3.905,6c0.808,2.281,1.21,4.698,1.21,7.251c0,4-0.6,7.102-1.8,9.307
			c-1.201,2.204-2.865,4.051-4.997,5.541c-2.13,1.489-4.419,2.48-6.864,2.974c-3.343,0.681-6.371,1.021-9.084,1.021H116.56V0.888z
			 M131.803,9.365v20.451h3.735c3.186,0,5.451-0.268,6.797-0.805c1.346-0.536,2.399-1.472,3.164-2.808
			c0.762-1.336,1.144-3.502,1.144-6.498c0-3.966-0.853-6.681-2.558-8.145c-1.704-1.464-4.532-2.196-8.479-2.196H131.803z"/>
		<path fill="#642002" d="M139.207,38.569H116.31V0.638h22.897c4.468,0,8.134,0.468,10.896,1.392
			c2.771,0.928,5.095,2.278,6.907,4.014c1.815,1.738,3.15,3.79,3.968,6.097c0.812,2.296,1.225,4.764,1.225,7.335
			c0,4.024-0.616,7.196-1.831,9.426c-1.215,2.229-2.922,4.123-5.074,5.626c-2.148,1.501-4.489,2.516-6.958,3.014
			C144.996,38.224,141.923,38.569,139.207,38.569z M116.81,38.069h22.397c2.683,0,5.722-0.342,9.035-1.017
			c2.401-0.485,4.679-1.472,6.771-2.934c2.088-1.458,3.743-3.294,4.92-5.455c1.175-2.156,1.77-5.247,1.77-9.187
			c0-2.515-0.402-4.926-1.196-7.168c-0.791-2.233-2.083-4.219-3.842-5.903c-1.758-1.685-4.019-2.998-6.719-3.901
			c-2.712-0.907-6.325-1.366-10.738-1.366H116.81V38.069z M135.538,30.066h-3.985V9.115h4.052c3.993,0,6.9,0.759,8.643,2.256
			c1.755,1.506,2.645,4.311,2.645,8.334c0,3.025-0.396,5.253-1.176,6.622c-0.79,1.381-1.896,2.362-3.289,2.917
			C141.041,29.797,138.787,30.066,135.538,30.066z M132.053,29.566h3.485c3.14,0,5.396-0.265,6.705-0.787
			c1.285-0.511,2.307-1.419,3.04-2.7c0.737-1.292,1.11-3.437,1.11-6.374c0-3.871-0.832-6.547-2.471-7.955
			c-1.649-1.417-4.447-2.136-8.317-2.136h-3.552V29.566z"/>
	</g>
	<g>
		<path fill="#F94F06" d="M162.625,0.888h16.933l9.937,12.628l9.959-12.628h16.843l-19.181,21.754v15.677h-15.276V22.642
			L162.625,0.888z"/>
		<path fill="#642002" d="M197.365,38.569h-15.776V22.737L162.07,0.638h17.609l9.815,12.474l9.838-12.474h17.518l-19.485,22.098
			V38.569z M182.089,38.069h14.776V22.547l18.877-21.409h-16.168l-10.08,12.782L179.436,1.138h-16.257l18.91,21.409V38.069z"/>
	</g>
	<g>
		<path fill="#F94F06" d="M244.124,0.888h25.337c5.52,0,9.652,0.996,12.401,2.987c2.748,1.992,4.121,4.826,4.121,8.502
			c0,3.778-1.498,6.732-4.492,8.86c-2.995,2.127-7.565,3.191-13.712,3.191h-8.344v13.89h-15.312V0.888z M259.435,16.846h3.734
			c2.939,0,5.003-0.388,6.192-1.162s1.784-1.766,1.784-2.974c0-1.174-0.517-2.17-1.548-2.988c-1.032-0.817-2.973-1.225-5.821-1.225
			h-4.341V16.846z"/>
		<path fill="#642002" d="M259.685,38.569h-15.812V0.638h25.587c5.546,0,9.768,1.021,12.548,3.035
			c2.803,2.032,4.225,4.961,4.225,8.705c0,3.847-1.547,6.896-4.597,9.063c-3.024,2.148-7.686,3.237-13.857,3.237h-8.094V38.569z
			 M244.374,38.069h14.812v-13.89h8.594c6.065,0,10.63-1.058,13.567-3.145c2.911-2.069,4.387-4.981,4.387-8.656
			c0-3.575-1.352-6.367-4.018-8.3c-2.693-1.951-6.816-2.94-12.254-2.94h-25.087V38.069z M263.169,17.096h-3.984V8.247h4.591
			c2.934,0,4.889,0.418,5.976,1.279c1.09,0.864,1.643,1.935,1.643,3.184c0,1.292-0.639,2.363-1.898,3.184
			C268.255,16.703,266.185,17.096,263.169,17.096z M259.685,16.596h3.484c2.875,0,4.913-0.377,6.056-1.122
			c1.124-0.732,1.67-1.637,1.67-2.765c0-1.104-0.476-2.017-1.454-2.792c-0.981-0.777-2.888-1.171-5.666-1.171h-4.091V16.596z"/>
	</g>
	<g>
		<path fill="#F94F06" d="M293.924,0.888h40.852V8.88h-25.573v5.949h23.722v7.634h-23.722v7.379h26.312v8.477h-41.591V0.888z"/>
		<path fill="#642002" d="M335.765,38.569h-42.091V0.638h41.352V9.13h-25.573v5.449h23.722v8.134h-23.722v6.879h26.312V38.569z
			 M294.174,38.069h41.091v-7.977h-26.312v-7.879h23.722v-7.134h-23.722V8.63h25.573V1.138h-40.352V38.069z"/>
	</g>
	<g>
		<path fill="#F94F06" d="M343.927,38.319V0.888h25.406c4.71,0,8.31,0.306,10.8,0.919c2.492,0.613,4.498,1.749,6.025,3.408
			c1.525,1.66,2.287,3.681,2.287,6.064c0,2.077-0.583,3.868-1.75,5.375c-1.167,1.506-2.773,2.727-4.814,3.664
			c-1.303,0.595-3.087,1.089-5.353,1.48c1.816,0.46,3.138,0.921,3.967,1.38c0.56,0.307,1.374,0.962,2.439,1.968
			c1.063,1.004,1.776,1.779,2.134,2.324l7.383,10.847h-17.224l-8.149-11.439c-1.032-1.48-1.952-2.442-2.759-2.885
			c-1.098-0.579-2.344-0.868-3.733-0.868h-1.346v15.192H343.927z M359.239,16.055h6.426c0.696,0,2.042-0.17,4.038-0.511
			c1.01-0.153,1.833-0.545,2.474-1.175c0.639-0.629,0.959-1.353,0.959-2.17c0-1.209-0.505-2.136-1.515-2.783
			c-1.01-0.646-2.904-0.97-5.687-0.97h-6.695V16.055z"/>
		<path fill="#642002" d="M392.923,38.569h-17.825l-8.224-11.544c-1.006-1.444-1.906-2.389-2.676-2.811
			c-1.053-0.555-2.271-0.837-3.613-0.837h-1.096v15.192h-15.812V0.638h25.656c4.709,0,8.363,0.312,10.859,0.927
			c2.527,0.621,4.596,1.792,6.149,3.481c1.562,1.7,2.353,3.797,2.353,6.234c0,2.123-0.606,3.983-1.803,5.528
			c-1.187,1.53-2.838,2.788-4.908,3.738c-1.102,0.503-2.555,0.938-4.331,1.297c1.294,0.37,2.288,0.745,2.962,1.118
			c0.58,0.318,1.417,0.993,2.49,2.005c1.093,1.033,1.803,1.808,2.171,2.368L392.923,38.569z M375.355,38.069h16.622l-7.117-10.457
			c-0.344-0.524-1.049-1.291-2.099-2.283c-1.041-0.983-1.844-1.633-2.387-1.931c-0.812-0.449-2.126-0.906-3.909-1.357l-1.139-0.289
			l1.158-0.2c2.233-0.386,4.013-0.877,5.292-1.461c1.996-0.916,3.584-2.124,4.721-3.59c1.127-1.455,1.698-3.211,1.698-5.221
			c0-2.307-0.748-4.291-2.221-5.896c-1.486-1.615-3.471-2.737-5.9-3.334c-2.458-0.605-6.071-0.912-10.74-0.912h-25.156v36.931
			h14.812V22.877h1.596c1.425,0,2.72,0.302,3.85,0.897c0.853,0.467,1.784,1.436,2.848,2.963L375.355,38.069z M365.665,16.305h-6.676
			V8.196h6.945c2.856,0,4.761,0.33,5.822,1.009c1.082,0.693,1.63,1.7,1.63,2.994c0,0.882-0.348,1.672-1.034,2.348
			c-0.676,0.665-1.555,1.083-2.612,1.244C367.714,16.136,366.38,16.305,365.665,16.305z M359.489,15.805h6.176
			c0.677,0,2.021-0.17,3.996-0.507c0.955-0.145,1.741-0.517,2.341-1.106c0.595-0.586,0.884-1.238,0.884-1.992
			c0-1.128-0.458-1.969-1.4-2.573c-0.965-0.617-2.833-0.93-5.552-0.93h-6.445V15.805z"/>
	</g>
	<g>
		<path fill="#F94F06" d="M397.33,0.888h15.243v28.213h23.789v9.217H397.33V0.888z"/>
		<path fill="#642002" d="M436.611,38.569H397.08V0.638h15.743v28.213h23.789V38.569z M397.58,38.069h38.532v-8.717h-23.789V1.138
			H397.58V38.069z"/>
	</g>
	<g>
		<path fill="#F94F06" d="M443.899,0.888h15.276v37.431h-15.276V0.888z"/>
		<path fill="#642002" d="M459.426,38.569h-15.776V0.638h15.776V38.569z M444.149,38.069h14.776V1.138h-14.776V38.069z"/>
	</g>
	<g>
		<path fill="#F94F06" d="M466.645,0.888h46.334v9.243h-15.546v28.188h-15.243V10.131h-15.546V0.888z"/>
		<path fill="#642002" d="M497.684,38.569h-15.743V10.381h-15.546V0.638h46.834v9.743h-15.546V38.569z M482.441,38.069h14.743V9.881
			h15.546V1.138h-45.834v8.743h15.546V38.069z"/>
	</g>
	<g>
		<path fill="#F94F06" d="M550.365,22.999l13.358,3.064c-0.896,2.843-2.311,5.217-4.239,7.124c-1.93,1.907-4.325,3.345-7.184,4.315
			c-2.861,0.97-6.5,1.455-10.92,1.455c-5.361,0-9.741-0.591-13.141-1.772c-3.397-1.183-6.331-3.262-8.797-6.238
			c-2.468-2.977-3.702-6.788-3.702-11.432c0-6.192,2.169-10.949,6.51-14.277c4.341-3.323,10.481-4.987,18.424-4.987
			c6.213,0,11.099,0.954,14.653,2.859c3.555,1.907,6.196,4.834,7.925,8.783l-13.461,2.272c-0.471-1.14-0.965-1.974-1.479-2.502
			c-0.853-0.885-1.896-1.566-3.13-2.042c-1.234-0.477-2.613-0.715-4.138-0.715c-3.455,0-6.102,1.055-7.941,3.162
			c-1.391,1.566-2.087,4.021-2.087,7.37c0,4.149,0.829,6.992,2.49,8.53c1.661,1.539,3.993,2.309,7,2.309
			c2.916,0,5.121-0.622,6.612-1.864C548.61,27.17,549.692,25.366,550.365,22.999z"/>
		<path fill="#642002" d="M541.38,39.207c-5.362,0-9.811-0.601-13.223-1.786c-3.428-1.194-6.425-3.318-8.908-6.315
			c-2.495-3.009-3.76-6.909-3.76-11.592c0-6.243,2.223-11.113,6.608-14.475C526.466,1.695,532.716,0,540.675,0
			c6.226,0,11.196,0.972,14.771,2.889c3.587,1.924,6.292,4.919,8.036,8.903l0.128,0.293l-13.973,2.359l-0.076-0.184
			c-0.457-1.104-0.937-1.92-1.428-2.423c-0.826-0.856-1.849-1.523-3.041-1.983c-1.199-0.464-2.561-0.699-4.048-0.699
			c-3.362,0-5.97,1.035-7.752,3.077c-1.344,1.513-2.025,3.937-2.025,7.206c0,4.057,0.811,6.865,2.41,8.346
			c1.606,1.488,3.904,2.243,6.83,2.243c2.843,0,5.014-0.608,6.452-1.806c1.446-1.204,2.511-2.984,3.166-5.29l0.065-0.229
			l13.854,3.178l-0.082,0.258c-0.903,2.866-2.35,5.297-4.301,7.226c-1.947,1.923-4.396,3.396-7.279,4.375
			C549.506,38.713,545.805,39.207,541.38,39.207z M540.675,0.5c-7.847,0-13.994,1.661-18.272,4.936
			c-4.255,3.262-6.412,7.999-6.412,14.078c0,4.563,1.226,8.356,3.645,11.272c2.424,2.925,5.347,4.999,8.687,6.162
			c3.359,1.167,7.752,1.759,13.059,1.759c4.37,0,8.017-0.485,10.84-1.442c2.811-0.955,5.196-2.387,7.088-4.256
			c1.834-1.813,3.21-4.088,4.093-6.763l-12.863-2.95c-0.688,2.294-1.784,4.08-3.26,5.309c-1.531,1.276-3.809,1.922-6.772,1.922
			c-3.056,0-5.468-0.799-7.169-2.375c-1.705-1.58-2.57-4.511-2.57-8.713c0-3.395,0.723-5.93,2.15-7.536
			c1.88-2.153,4.615-3.246,8.128-3.246c1.549,0,2.972,0.246,4.229,0.732c1.261,0.487,2.344,1.194,3.22,2.103
			c0.506,0.519,0.995,1.324,1.453,2.396l12.947-2.186c-1.702-3.732-4.285-6.547-7.684-8.37C551.708,1.452,546.817,0.5,540.675,0.5z"
			/>
	</g>
	<g>
		<path fill="#F94F06" d="M571.194,0.888h15.243v13.098h16.656V0.888h15.31v37.431h-15.31V23.178h-16.656v15.141h-15.243V0.888z"/>
		<path fill="#642002" d="M618.653,38.569h-15.81V23.428h-16.156v15.141h-15.743V0.638h15.743v13.098h16.156V0.638h15.81V38.569z
			 M603.343,38.069h14.81V1.138h-14.81v13.098h-17.156V1.138h-14.743v36.931h14.743V22.928h17.156V38.069z"/>
	</g>
</g>
</svg>
